<?xml version="1.0" encoding="utf-8"?>
<!-- Generator: Adobe Illustrator 27.5.0, SVG Export Plug-In . SVG Version: 6.00 Build 0)  -->
<svg version="1.1" id="_x2018_ëîé_x5F_1" xmlns="http://www.w3.org/2000/svg" xmlns:xlink="http://www.w3.org/1999/xlink"
	 x="0px" y="0px" viewBox="0 0 3200 2000" style="enable-background:new 0 0 3200 2000;" xml:space="preserve">
<rect style="fill:#FFFFFF;" width="3200" height="2000"/>
<g>
	<path style="fill:#EBF3FA;" d="M2964.489,1236.394c-7.537,70.53-28.775,133.988-53.243,186.671
		c-2.041,4.395-4.093,8.713-6.177,12.957c-0.335,0.68-0.669,1.36-1.004,2.029c-18.086,36.551-38.095,66.784-53.644,90.917
		c-9.026,14.005-40.49,42.921-104.435,77.851c-6.554,3.585-13.465,7.234-20.721,10.938
		c-130.36,66.503-374.614,150.411-795.658,196.097c-339.544,36.853-975.29,31.918-1299.921-74.202
		c-89.189-29.164-191.389-159.978-191.389-159.978c-8.584-16.294-16.456-32.156-23.625-47.586c-0.659-1.382-1.296-2.764-1.922-4.135
		c-3.596-7.818-7.008-15.527-10.258-23.129c-0.054-0.151-0.108-0.292-0.151-0.432c-2.3-6.803-4.351-13.454-6.165-19.965
		c-1.112-4.018-2.127-7.98-3.066-11.889c-4.686-19.469-7.169-37.651-7.85-54.787c-0.119-2.938-0.184-5.842-0.206-8.703
		c-0.043-9.297,0.464-18.28,1.425-26.994c0.681-6.068,1.577-11.996,2.689-17.816c0.119-0.647,0.248-1.307,0.378-1.954
		c1.177-5.907,2.57-11.705,4.157-17.396c0.453-1.662,0.928-3.314,1.414-4.956c1.598-5.291,3.336-10.506,5.248-15.635
		c0.054-0.184,0.129-0.367,0.194-0.551c3.563-9.589,7.634-18.929,12.083-28.085c6.554-13.529,13.929-26.659,21.747-39.692
		c11.154-18.594,23.193-36.96,34.952-55.845c39.778-63.901,76.404-133.881,65.358-239.763c-2.138-20.548-6.068-42.435-12.125-65.909
		c-6.619-25.655-11.662-50.738-15.247-75.238c-15.235-104.284-3.736-197.835,27.405-279.53
		c6.705-17.578,14.339-34.606,22.793-51.083c30.86-60.111,72.917-112.771,122.748-157.419c42.964-38.515,91.715-71.07,144.02-97.33
		c24.597-12.363,49.993-23.323,75.94-32.847c34.779-12.773,70.563-22.978,106.8-30.536
		c232.323-48.449,483.552,11.985,608.967,204.066c165.377,253.27,417.189,292.055,526.754,260.537
		c22.956-6.608,46.149-12.773,69.537-18.226c142.648-33.214,292.627-39.358,439.714,50.198c0.054,0.032,0.118,0.065,0.173,0.097
		c0.032,0.021,0.054,0.032,0.086,0.054c12.634,7.71,25.245,16.11,37.835,25.277c4.546,3.304,9.092,6.716,13.627,10.226
		c8.648,6.673,17.287,13.724,25.914,21.153c28.376,24.446,56.58,52.995,84.535,86.122c3.888,4.6,7.764,9.286,11.63,14.069
		c0.01,0,0.01,0.011,0.01,0.021c1.879,2.3,3.747,4.622,5.604,6.976c5.657,7.116,11.305,14.436,16.941,21.952
		c4.783,6.403,9.556,12.914,14.339,19.608c15.797,22.081,29.5,44.066,41.301,65.877c11.543,21.315,21.283,42.478,29.392,63.404
		c0.638,1.642,1.264,3.283,1.879,4.924c0.356,0.94,0.702,1.879,1.036,2.808c4.438,11.975,8.336,23.874,11.738,35.676
		c1.63,5.657,3.152,11.283,4.545,16.898c2.732,10.852,5.043,21.616,6.986,32.296
		C2968.527,1144.02,2969.272,1191.638,2964.489,1236.394z"/>
	<g style="opacity:0.5;">
		<path style="fill:#D5E5FB;" d="M2959.576,1094.48c8.951,49.539,9.696,97.157,4.913,141.913
			c-7.537,70.53-28.775,133.988-53.243,186.671c-2.041,4.395-4.093,8.713-6.177,12.957c-0.335,0.68-0.669,1.36-1.004,2.029
			c-18.086,36.551-38.095,66.784-53.644,90.917c-9.955,15.44-47.186,49.011-125.155,88.789l-815.235,2.97v-2.959l-809.166,2.959
			h-69.429V1096.78h69.299V980.133h138.243v99.004h42.23V896.03h9.178v-12.806h1.641v12.806h33.343v-12.806h1.652v12.806h47.218
			v-12.806h1.652v12.806h29.715v-12.806h1.652v12.806h12.19v170.927h46.657v-27.643l55.036,0.249v-44.811h11.079v-8.865h1.468v8.865
			h42.5v0.011h8.498v-8.876h1.468v8.876h10.247v89.092h65.521v32.792h36.421v-19.036h33.785v-75.595h16.834v-35.254h2.537v35.254
			h40.384v-66.092h3.963v66.092h26.702v-0.918h-0.043v-8.379h0.043v-7.946h-0.043v-13.206h0.043v-8.433h-0.043v-13.206h0.043v-8.433
			h-0.043v-13.206h0.043v-9.113h-0.043v-13.216h0.043v-11.597h-0.043v-13.206h0.043v-8.757h7.958v-9.88h1.274v9.88h58.955v-9.88
			H1892v9.88h10.765v69.095l7.569,0.043v-0.043h-0.064v-13.206h0.064v-9.113h-0.064v-13.216h0.064v-9.081h-0.064v-13.206h0.064
			v-0.043h71.491v0.043h12.288c0.637,0.357,1.273,0.691,1.911,1.047v75.411h52.261v99.004h42.219V896.03h9.178v-12.806h1.652v12.806
			h33.343v-12.806h1.652v12.806h47.208v-12.806h1.651v12.806h29.716v-12.806h1.652v12.806h12.201v170.927h46.656v-27.643
			l55.036,0.249v-44.811h11.078v-8.865h1.469v8.865h42.488v0.011h8.498v-8.876h1.469v8.876h10.247v89.092h65.531v32.792h36.409
			v-19.036h33.775v-75.595h16.844v-35.254h2.548v35.254h40.373v-66.092h3.963v66.092h26.703v-0.918h-0.044v-8.379h0.044v-7.946
			h-0.044v-13.206h0.044v-8.433h-0.044v-13.206h0.044v-8.433h-0.044v-13.206h0.044v-9.113h-0.044v-13.216h0.044v-11.597h-0.044
			v-13.206h0.044v-8.757h7.969v-9.88h1.273v9.88h58.945v-9.88h1.273v9.88h10.754v69.095l7.473,0.043h0.107v-0.043h-0.064v-13.206
			h0.064v-9.113h-0.064v-13.216h0.064v-9.081h-0.064v-13.206h0.064v-0.043h71.492v0.043h12.276c0.647,0.357,1.274,0.691,1.911,1.047
			v75.411h87.721v99.015h42.229v-72.345c4.859,12.925,9.103,25.753,12.774,38.483c1.63,5.657,3.152,11.283,4.545,16.898
			C2955.322,1073.036,2957.633,1083.801,2959.576,1094.48z"/>
		<g>
			<rect x="2123.295" y="896.03" style="fill:#CBDEF4;" width="105.479" height="28.974"/>
			<rect x="2123.295" y="940.625" style="fill:#CBDEF4;" width="105.479" height="28.974"/>
			<rect x="2123.295" y="986.152" style="fill:#CBDEF4;" width="105.479" height="28.974"/>
			<rect x="2123.295" y="1032.404" style="fill:#CBDEF4;" width="105.479" height="28.973"/>
			<rect x="2123.295" y="1077.031" style="fill:#CBDEF4;" width="105.479" height="28.973"/>
			<g>
				<rect x="2631.992" y="892.402" style="fill:#CBDEF4;" width="49.215" height="17.596"/>
				<rect x="2631.992" y="919.486" style="fill:#CBDEF4;" width="49.215" height="17.596"/>
				<rect x="2631.992" y="947.135" style="fill:#CBDEF4;" width="49.215" height="17.596"/>
				<rect x="2631.992" y="975.224" style="fill:#CBDEF4;" width="49.215" height="17.596"/>
				<rect x="2631.992" y="1002.326" style="fill:#CBDEF4;" width="49.215" height="17.596"/>
			</g>
			<g>
				<rect x="2631.992" y="1032.155" style="fill:#CBDEF4;" width="49.215" height="17.596"/>
				<rect x="2631.992" y="1059.238" style="fill:#CBDEF4;" width="49.215" height="17.596"/>
				<rect x="2631.992" y="1086.887" style="fill:#CBDEF4;" width="49.215" height="17.596"/>
				<rect x="2631.992" y="1114.977" style="fill:#CBDEF4;" width="49.215" height="17.596"/>
				<rect x="2631.992" y="1142.078" style="fill:#CBDEF4;" width="49.215" height="17.597"/>
			</g>
			<g>
				<rect x="2719.535" y="903.941" style="fill:#CBDEF4;" width="52.74" height="17.596"/>
				<rect x="2719.535" y="931.025" style="fill:#CBDEF4;" width="52.74" height="17.596"/>
				<rect x="2719.535" y="958.674" style="fill:#CBDEF4;" width="52.74" height="17.596"/>
				<rect x="2719.535" y="986.763" style="fill:#CBDEF4;" width="52.74" height="17.596"/>
				<rect x="2719.535" y="1013.865" style="fill:#CBDEF4;" width="52.74" height="17.596"/>
			</g>
			<g>
				<rect x="2719.535" y="1042.121" style="fill:#CBDEF4;" width="52.74" height="17.597"/>
				<rect x="2719.535" y="1069.205" style="fill:#CBDEF4;" width="52.74" height="17.596"/>
				<rect x="2719.535" y="1096.854" style="fill:#CBDEF4;" width="52.74" height="17.596"/>
				<rect x="2719.535" y="1124.942" style="fill:#CBDEF4;" width="52.74" height="17.597"/>
				<rect x="2719.535" y="1152.045" style="fill:#CBDEF4;" width="52.74" height="17.596"/>
			</g>
			<g>
				<rect x="2719.535" y="1183.128" style="fill:#CBDEF4;" width="52.74" height="17.597"/>
				<rect x="2719.535" y="1210.212" style="fill:#CBDEF4;" width="52.74" height="17.596"/>
				<rect x="2719.535" y="1237.86" style="fill:#CBDEF4;" width="52.74" height="17.596"/>
				<rect x="2719.535" y="1265.949" style="fill:#CBDEF4;" width="52.74" height="17.596"/>
				<rect x="2719.535" y="1293.052" style="fill:#CBDEF4;" width="52.74" height="17.597"/>
			</g>
			<rect x="1281.206" y="896.03" style="fill:#CBDEF4;" width="102.565" height="28.974"/>
			<rect x="1281.206" y="939.678" style="fill:#CBDEF4;" width="102.565" height="28.974"/>
			<rect x="1281.206" y="985.205" style="fill:#CBDEF4;" width="102.565" height="28.973"/>
			<rect x="1281.206" y="1031.456" style="fill:#CBDEF4;" width="102.565" height="28.974"/>
			<rect x="1281.206" y="1076.083" style="fill:#CBDEF4;" width="102.565" height="28.974"/>
			<g>
				<rect x="1822.055" y="892.402" style="fill:#CBDEF4;" width="52.74" height="17.596"/>
				<rect x="1822.055" y="919.486" style="fill:#CBDEF4;" width="52.74" height="17.596"/>
				<rect x="1822.055" y="947.135" style="fill:#CBDEF4;" width="52.74" height="17.596"/>
				<rect x="1822.055" y="975.224" style="fill:#CBDEF4;" width="52.74" height="17.596"/>
				<rect x="1822.055" y="1002.326" style="fill:#CBDEF4;" width="52.74" height="17.596"/>
			</g>
			<g>
				<rect x="1822.055" y="1032.155" style="fill:#CBDEF4;" width="52.74" height="17.596"/>
				<rect x="1822.055" y="1059.238" style="fill:#CBDEF4;" width="52.74" height="17.596"/>
				<rect x="1822.055" y="1086.887" style="fill:#CBDEF4;" width="52.74" height="17.596"/>
				<rect x="1822.055" y="1114.977" style="fill:#CBDEF4;" width="52.74" height="17.596"/>
				<rect x="1822.055" y="1142.078" style="fill:#CBDEF4;" width="52.74" height="17.597"/>
			</g>
			<g>
				<rect x="1911.363" y="903.941" style="fill:#CBDEF4;" width="59.941" height="17.596"/>
				<rect x="1911.363" y="931.025" style="fill:#CBDEF4;" width="59.941" height="17.596"/>
				<rect x="1911.363" y="958.674" style="fill:#CBDEF4;" width="59.941" height="17.596"/>
				<rect x="1911.363" y="986.763" style="fill:#CBDEF4;" width="59.941" height="17.596"/>
				<rect x="1911.363" y="1013.865" style="fill:#CBDEF4;" width="59.941" height="17.596"/>
			</g>
			<g>
				<rect x="1911.363" y="1042.121" style="fill:#CBDEF4;" width="59.941" height="17.597"/>
				<rect x="1911.363" y="1069.205" style="fill:#CBDEF4;" width="59.941" height="17.596"/>
				<rect x="1911.363" y="1096.854" style="fill:#CBDEF4;" width="59.941" height="17.596"/>
				<rect x="1911.363" y="1124.942" style="fill:#CBDEF4;" width="59.941" height="17.597"/>
				<rect x="1911.363" y="1152.045" style="fill:#CBDEF4;" width="59.941" height="17.596"/>
			</g>
			<g>
				<rect x="1911.363" y="1183.128" style="fill:#CBDEF4;" width="59.941" height="17.597"/>
				<rect x="1911.363" y="1210.212" style="fill:#CBDEF4;" width="59.941" height="17.596"/>
				<rect x="1911.363" y="1237.86" style="fill:#CBDEF4;" width="59.941" height="17.596"/>
				<rect x="1911.363" y="1265.949" style="fill:#CBDEF4;" width="59.941" height="17.596"/>
				<rect x="1911.363" y="1293.052" style="fill:#CBDEF4;" width="59.941" height="17.597"/>
			</g>
		</g>
	</g>
	<path style="fill:#B1DBA5;" d="M2510.465,1331.758c0,0-142.137-13.907-186.989,68.85s-180.744-64.551-261.14-74.883
		c-80.396-10.333-166.494,45.502-172.224,85.396c-5.729,39.896-244.107-70.443-363.085,111.605l985.046-3.061L2510.465,1331.758z"/>
	<path style="fill:#BFE8B5;" d="M2904.065,1438.051c-15.948,32.231-33.386,59.55-47.952,82.095
		c-1.955,3.034-3.855,5.972-5.691,8.822c-10.203,15.829-49.053,50.685-131.04,91.759
		c-131.774,66.027-374.981,148.122-789.773,193.127c-163.078,17.697-394.493,25.763-626.935,17.6
		c-8.368-0.291-16.736-0.604-25.104-0.949c-6.403-0.249-12.806-0.519-19.209-0.811c-10.171-0.442-20.343-0.918-30.493-1.436
		c-11.694-0.595-23.377-1.221-35.039-1.9c-6.414-0.378-12.817-0.756-19.209-1.166c-206.678-12.914-404.146-39.844-543.933-85.54
		c-89.189-29.164-191.389-159.978-191.389-159.978c-13.724-26.044-25.623-50.965-35.805-74.85c-0.054-0.151-0.108-0.292-0.151-0.432
		c-2.3-6.803-4.351-13.454-6.165-19.965c111.713-4.104,332.579-4.719,611.159,32.436
		C1379.369,1566.5,2536.588,1402.084,2904.065,1438.051z"/>
	<path style="fill:#A8D29F;" d="M1553.628,1606.163c0,0-16.597-70.695,88.575-74.079c201.377-6.479,61.479-119.305,228.91-103.657
		s261.987-275.342,202.514-276.778s-152.886-16.857-130.519-152.75c22.366-135.892,119.256-106.685,151.131-165.1
		c31.876-58.415,75.687-128.999,190.082-115.612c114.396,13.387,164.925,64.146,160.641,191.235
		c-4.283,127.088-77.499,696.745-77.499,696.745L1553.628,1606.163z"/>
	<path style="fill:#F8FCFF;" d="M1428.99,747.304c0,0,18.977-38.729,64.356-34.425c0,0,65.882-64.551,136.137-8.606
		c0,0,74.681-13.862,129.987,12.002c36.875,17.244,49.054,35.333,49.054,35.333L1428.99,747.304z"/>
	<path style="fill:#F8FCFF;" d="M1183.855,578.472c0,0,22.725-44.409,77.066-39.475c0,0,78.893-74.018,163.023-9.869
		c0,0,89.429-15.895,155.659,13.763c44.157,19.773,58.742,40.516,58.742,40.516L1183.855,578.472z"/>
	<path style="fill:#A8D29F;" d="M1445.688,1532.088H414.673c-0.659-1.382-1.296-2.764-1.922-4.135
		c-3.596-7.818-7.008-15.527-10.258-23.129c-0.054-0.151-0.108-0.292-0.151-0.432c-2.3-6.803-4.351-13.454-6.165-19.965
		c-1.112-4.018-2.127-7.98-3.066-11.889c-4.686-19.469-7.169-37.651-7.85-54.787c-0.119-2.938-0.184-5.842-0.206-8.703
		c0.033-8.757,0.497-17.244,1.361-25.504c0.68-6.587,1.609-13.012,2.753-19.307c0.119-0.658,0.237-1.307,0.378-1.954
		c1.069-5.626,2.31-11.144,3.736-16.574c0.432-1.696,0.885-3.369,1.35-5.043c1.566-5.582,3.294-11.067,5.172-16.478
		c0.184,0.032,0.378,0.076,0.562,0.108c124.238,23.755,252.244-47.823,405.496-17.104
		c190.881,38.267,252.622,179.479,314.083,158.272C1181.405,1444.26,1440.679,1444.26,1445.688,1532.088z"/>
	<g>
		<g>
			<rect x="2108.557" y="942.829" style="fill:#F9DDBF;" width="473.545" height="663.965"/>
			<path style="fill:#FFF3E9;" d="M2959.576,1094.48c8.951,49.539,9.696,97.157,4.913,141.913
				c-7.537,70.53-28.775,133.988-53.243,186.671c-2.041,4.395-4.093,8.713-6.177,12.957c-0.335,0.68-0.669,1.36-1.004,2.029
				c-18.086,36.551-38.095,66.784-53.644,90.917c-9.026,14.005-40.49,42.921-104.435,77.851h-163.876V942.827l5.01-0.065
				l247.364-3.348l69.515-0.94c11.543,21.315,21.283,42.478,29.392,63.404c0.638,1.642,1.264,3.283,1.879,4.924
				c0.356,0.94,0.702,1.879,1.036,2.808c4.438,11.975,8.336,23.874,11.738,35.676c1.63,5.657,3.152,11.283,4.545,16.898
				C2955.322,1073.036,2957.633,1083.801,2959.576,1094.48z"/>
			<path style="fill:#ED9F4A;" d="M2652.264,667.194c12.634,7.71,25.245,16.11,37.835,25.277l-50.555,104.068l-71.06,146.287
				l-16.175,33.3l-4.999,10.29v0.011h-471.372l32.619-42.241l1.048-1.36l210.824-275.848l1.263,1.177l142.087-0.432l188.398-0.583
				C2652.21,667.162,2652.231,667.173,2652.264,667.194z"/>
			<path style="fill:#F9DDBF;" d="M2690.099,692.472c4.546,3.304,9.092,6.716,13.627,10.226l-50.469,103.895l-66.136,136.17
				l-0.032,0.065l-4.978,10.258l-0.011,0.022l-16.186,33.311h-471.372l14.004-18.14l0.011-0.011l19.642-25.439l202.467-262.2
				l9.631-12.483l123.547-0.377l188.42-0.573C2664.897,674.904,2677.509,683.305,2690.099,692.472z"/>
			<g>
				<path style="fill:#ED9F4A;" d="M2936.307,1009.61l-354.195-5.334h-0.011l-8.768-0.13l-13.303-17.729l-7.721-10.29l-24.976-33.3
					l-196.668-262.2l-9.167-12.223l-1.069-1.425l142.378,0.043l189.197,0.022c0.054,0.032,0.118,0.065,0.173,0.097
					c0.032,0.021,0.054,0.032,0.086,0.054c12.634,7.71,25.245,16.11,37.835,25.277c4.546,3.304,9.092,6.716,13.627,10.226
					c8.648,6.673,17.287,13.724,25.914,21.153c28.376,24.446,56.58,52.995,84.535,86.122c3.888,4.6,7.764,9.286,11.63,14.069
					c0.01,0,0.01,0.011,0.01,0.021c1.879,2.3,3.747,4.622,5.604,6.976c5.657,7.116,11.305,14.436,16.941,21.952
					c4.783,6.403,9.556,12.914,14.339,19.608c15.797,22.081,29.5,44.066,41.301,65.877c11.543,21.315,21.283,42.478,29.392,63.404
					c0.638,1.642,1.264,3.283,1.879,4.924C2935.627,1007.742,2935.973,1008.682,2936.307,1009.61z"/>
				<path style="fill:#E58638;" d="M2904,938.475c11.543,21.315,21.283,42.478,29.392,63.404l-389.854-334.835h108.467
					c0.054,0.032,0.118,0.065,0.173,0.097c0.032,0.021,0.054,0.032,0.086,0.054c12.634,7.71,25.245,16.11,37.835,25.277
					c4.546,3.304,9.092,6.716,13.627,10.226c8.648,6.673,17.287,13.724,25.914,21.153c28.376,24.446,56.58,52.995,84.535,86.122
					c3.888,4.6,7.764,9.286,11.63,14.069c0.01,0,0.01,0.011,0.01,0.021c1.879,2.3,3.747,4.622,5.604,6.976
					c5.657,7.116,11.305,14.436,16.941,21.952c4.783,6.403,9.556,12.914,14.339,19.608
					C2878.496,894.68,2892.199,916.664,2904,938.475z"/>
			</g>
			<g>
				<path style="fill:#EFCDAF;" d="M2255.414,868.822h-6.796c-23.084,0-41.798,18.713-41.798,41.797v106.216h89.035V909.263
					C2295.855,886.928,2277.749,868.822,2255.414,868.822z"/>
				<path style="fill:#FFF3E9;" d="M2255.414,866.228h-6.795c-24.479,0-44.393,19.914-44.393,44.392v108.811h94.223V909.263
					C2298.449,885.533,2279.145,866.228,2255.414,866.228z M2248.619,871.416h6.795c20.869,0,37.848,16.978,37.848,37.847v1.387
					h-83.848v-0.03C2209.414,889.003,2227.002,871.416,2248.619,871.416z M2209.414,917.185h37.675v97.058h-37.675V917.185z
					 M2253.759,1014.242v-97.058h39.503v97.058H2253.759z"/>
			</g>
			<g>
				<path style="fill:#EFCDAF;" d="M2393.598,868.822h-6.796c-23.084,0-41.798,18.713-41.798,41.797v106.216h89.035V909.263
					C2434.039,886.928,2415.933,868.822,2393.598,868.822z"/>
				<path style="fill:#FFF3E9;" d="M2393.598,866.228h-6.796c-24.478,0-44.393,19.914-44.393,44.392v108.811h94.224V909.263
					C2436.633,885.533,2417.327,866.228,2393.598,866.228z M2386.802,871.416h6.796c20.869,0,37.848,16.978,37.848,37.847v1.387
					h-83.848v-0.03C2347.598,889.003,2365.186,871.416,2386.802,871.416z M2347.598,917.185h37.674v97.058h-37.674V917.185z
					 M2391.942,1014.242v-97.058h39.503v97.058H2391.942z"/>
			</g>
		</g>
		<g>
			<polygon style="fill:#ED9F4A;" points="2288.914,1075.641 2178.452,1303.063 1842.86,1303.063 2017.822,1076.471 			"/>
			<g>
				<polygon style="fill:#F9DDBF;" points="2298.97,1075.641 2188.507,1303.063 1852.916,1303.063 2027.878,1076.471 				"/>
				<polygon style="fill:#F9DDBF;" points="2187.774,1303.061 2187.774,1606.166 1852.921,1606.822 1852.921,1303.061 				"/>
				<rect x="2187.774" y="1303.061" style="fill:#FFF3E9;" width="283.556" height="303.105"/>
				<polygon style="fill:#ED9F4A;" points="2502.49,1316.509 2197.877,1316.509 2017.817,1076.466 2108.557,1076.48 
					2317.197,1076.525 				"/>
				<path style="fill:#EFCDAF;" d="M2088.362,1353.551v253.271h-141.074v-250.944c0-20.903,8.94-39.723,23.216-52.817
					c12.756-11.737,29.78-18.884,48.485-18.884c18.415,0,35.164,7.179,47.563,18.884
					C2079.988,1315.703,2088.362,1333.648,2088.362,1353.551z"/>
				<polygon style="fill:#E58638;" points="2502.49,1316.509 2482.621,1316.509 2206.82,1076.48 2317.197,1076.525 				"/>
			</g>
		</g>
		<path style="fill:#FFF3E9;" d="M2018.62,1293.052h-0.031c-33.654,0-60.936,27.282-60.936,60.936v242.832h119.924v-244.811
			C2077.577,1319.448,2051.181,1293.052,2018.62,1293.052z"/>
		<path style="fill:#F9DDBF;" d="M2069.67,1352.826v2.116H1965.98v-0.399c0-29.101,23.593-52.693,52.692-52.693h0.021
			C2046.855,1301.85,2069.67,1324.676,2069.67,1352.826z"/>
		<g>
			<path style="fill:#EFCDAF;" d="M2018.678,1299.689c-30.255,0-54.852,24.608-54.852,54.853v2.56h108.009v-4.276
				C2071.835,1323.531,2047.993,1299.689,2018.678,1299.689z M1968.166,1352.782c0.476-13.919,6.619-26.422,16.176-35.287
				c1.047-0.972,2.148-1.911,3.282-2.797c8.573-6.694,19.371-10.689,31.075-10.689c10.873,0,20.926,3.574,29.046,9.61
				c1.166,0.863,2.278,1.771,3.358,2.731c10.053,8.94,16.391,21.963,16.412,36.432H1968.166z"/>
		</g>
		<path style="fill:#EFCDAF;" d="M2053.121,1480.898c0-2.043,1.657-3.7,3.701-3.7c2.043,0,3.7,1.657,3.7,3.7
			c0,2.044-1.657,3.701-3.7,3.701C2054.778,1484.6,2053.121,1482.942,2053.121,1480.898z"/>
		<g>
			<polygon style="fill:#EFCDAF;" points="2052.485,1314.493 2051.104,1316.351 2023.86,1352.782 2020.632,1357.102 
				2018.559,1357.102 2014.834,1352.782 1984.342,1317.495 1982.895,1315.821 1986.155,1313.004 1987.624,1314.698 
				2019.423,1351.497 2047.745,1313.619 2049.03,1311.902 			"/>
		</g>
		<rect x="1954.256" y="1362.562" style="fill:#EFCDAF;" width="132.811" height="9.864"/>
		<g>
			<path style="fill:#EFCDAF;" d="M2069.134,1587.516h-102.586v-205.834h102.586V1587.516z M1967.634,1586.43h100.414v-203.662
				h-100.414V1586.43z"/>
		</g>
	</g>
	<g>
		<path style="fill:#82B378;" d="M2856.113,1520.146c-1.955,3.034-3.855,5.972-5.691,8.822
			c-10.203,15.829-49.053,50.685-131.04,91.759h-389.828c4.805-34.801,22.74-58.427,48.946-73.878
			c4.448-2.624,9.123-5.011,14.025-7.17c1.49-0.669,3.013-1.317,4.557-1.933c2.635-1.069,5.323-2.073,8.066-3.023
			c2.311-0.81,4.664-1.565,7.051-2.278c5.313-1.608,10.809-3.023,16.455-4.254c36.27-7.904,78.932-8.347,121.971-5.043
			c60.078,4.589,87.483,29.813,166.154,25.482C2758.944,1546.309,2808.938,1534.41,2856.113,1520.146z"/>
		<g>
			<path style="fill:#82B378;" d="M2412.261,1558.329c0,0-29.441-107.776-51.931-102.098S2412.261,1558.329,2412.261,1558.329z"/>
			<path style="fill:#82B378;" d="M2421.61,1568.641c0,0-76.033-81.863-93.33-66.409
				C2310.982,1517.686,2421.61,1568.641,2421.61,1568.641z"/>
			<path style="fill:#82B378;" d="M2429.287,1586.785c0,0,4.865-111.62-18.284-113.077
				C2387.854,1472.25,2429.287,1586.785,2429.287,1586.785z"/>
		</g>
	</g>
	<path style="fill:#A8D29F;" d="M2253.237,1634.267h-50.635c-2.714-2.302,1.877-7.528,6.674-7.88
		c2.084-0.157,4.719,0.278,7.729,0.914c0.696-9.254,4.676-50.858,19.672-49.187c16.862,1.871,0,18.321-4.767,28.061
		c-3.531,7.214-7.256,17.559-8.958,22.44c1.369,0.297,2.786,0.588,4.233,0.854c2.235-6.862,10.552-29.944,21.126-28.601
		c12.417,1.575,7.426,10.83-1.374,16.323c-6.457,4.04-14.386,9.782-18.152,12.556c3.191,0.521,6.522,0.872,9.902,0.794
		C2247.362,1630.336,2251.596,1632.892,2253.237,1634.267z"/>
	<g>
		<path style="fill:#A8D29F;" d="M1433.022,1624.054c0,0-27.508-75.546-46.822-69.107
			C1366.886,1561.385,1433.022,1624.054,1433.022,1624.054z"/>
		<path style="fill:#A8D29F;" d="M1422.487,1624.054c-2.342,0-46.237-45.554-49.164-33.627S1422.487,1624.054,1422.487,1624.054z"/>
		<path style="fill:#A8D29F;" d="M1469.309,1624.054c0,0-18.154-16.646-41.139-12.313c-22.984,4.334-32.801,9.079-47.238,5.796
			c-14.437-3.283-21.812,6.517-21.812,6.517H1469.309z"/>
	</g>
	<g>
		<g>
			<rect x="1467.305" y="1375.052" style="fill:#F99746;" width="233.257" height="102.515"/>
			<g>
				<path style="fill:#D3A784;" d="M1497.362,1625.506h-0.337c-1.011,0-1.805-0.865-1.717-1.873l12.744-146.066h8.883
					l-17.106,145.746C1499.682,1624.563,1498.622,1625.506,1497.362,1625.506z"/>
			</g>
			<g>
				<path style="fill:#D3A784;" d="M1669.028,1625.506h0.337c1.011,0,1.805-0.865,1.717-1.873l-12.744-146.066h-8.883
					l17.106,145.746C1666.709,1624.563,1667.769,1625.506,1669.028,1625.506z"/>
			</g>
			<g>
				<path style="fill:#FFFFFF;" d="M1500.956,1439.734l4.55-5.41c4.119,3.566,8.238,5.595,13.587,5.595
					c4.673,0,7.624-2.152,7.624-5.533c0-3.074-1.722-4.733-9.714-6.641c-9.161-2.151-14.326-4.856-14.326-12.91
					c0-7.378,6.148-12.481,14.694-12.481c6.271,0,11.251,1.906,15.616,5.41l-4.058,5.718c-3.874-2.889-7.747-4.427-11.682-4.427
					c-4.427,0-7.009,2.275-7.009,5.227c0,3.319,1.967,4.795,10.206,6.763c9.1,2.214,13.834,5.472,13.834,12.728
					c0,8.054-6.333,12.849-15.371,12.849C1512.33,1446.62,1506.12,1444.346,1500.956,1439.734z"/>
				<path style="fill:#FFFFFF;" d="M1557.521,1402.661h7.009l18.937,43.345h-7.993l-4.366-10.391h-20.35l-4.427,10.391h-7.747
					L1557.521,1402.661z M1568.342,1428.913l-7.438-17.214l-7.378,17.214H1568.342z"/>
				<path style="fill:#FFFFFF;" d="M1590.847,1402.969h7.563v36.151h22.625v6.886h-30.188V1402.969z"/>
				<path style="fill:#FFFFFF;" d="M1628.905,1402.969h31.909v6.763h-24.347v11.189h21.58v6.764h-21.58v11.558h24.654v6.764h-32.217
					V1402.969z"/>
			</g>
		</g>
		<polygon style="fill:#F99746;" points="1700.562,1375.052 1732.575,1428.913 1700.562,1477.566 		"/>
	</g>
	<g>
		<path style="fill:#163560;" d="M1187.92,707.37c-59.09-68.99-53.01-126.02-51.24-179.11c1.8-53.11-36.81-207.42-169.13-191.89
			c0,0-34.66-14.1-77.9,8.34c-78.46,40.7-234.56,362.99-170.25,461.84c12.55,19.3,33.51,30.08,65.08,28.59h0.01
			c9.41-0.44,19.77-1.98,31.13-4.71c-1.63-3.15,4.32-7.89,14.97-12.31c2.94-1.21,6.25-2.41,9.86-3.54c5.1-1.6,10.81-3.07,16.94-4.29
			c3.09-0.61,6.29-1.17,9.58-1.64c54.3-7.85,132.23,5.49,134.15,106.77c0,0,30.23-0.74,68.92-6.7c15.27-2.35,31.85-5.51,48.41-9.75
			c7.17-1.85,14.34-3.89,21.4-6.17c20.09-6.46,39.27-14.75,55.01-25.4C1239.71,837.08,1256.74,787.71,1187.92,707.37z"/>
		<path style="fill:#FFB27D;" d="M1400.085,1008.418c0,0,23.27-35.426,42.025-36.121c18.755-0.694,53.486-10.419,50.707-3.473
			c-2.778,6.946-24.312,7.641-26.395,11.809c-2.084,4.168,31.952,10.419,41.677,11.114c9.725,0.694,32.647,0,31.953,4.862
			c-0.695,4.862-41.314,25.006-69.975,22.228c-28.661-2.778-64.087,8.335-64.087,8.335L1400.085,1008.418z"/>
		<path style="fill:#FFB27D;" d="M1540.05,996.61c-0.163,1.144-2.538,3.131-6.457,5.474c-0.087-0.227-0.162-0.442-0.238-0.669
			l-0.151-0.151c-0.14-0.151-0.14-0.151-0.14-0.453c-0.562-1.188-1.415-2.397-2.127-4.039l-0.432-0.454
			c-0.885-1.35-1.89-2.591-3.002-3.736C1534.575,993.09,1540.406,994.127,1540.05,996.61z"/>
		<path style="fill:#F9DDBF;" d="M1063.543,1019.879c0,0,12.649,25.048,35.593,53.826c27.652,34.634,70.288,74.644,123.822,82.541
			c25.569,3.771,50.575-1.729,73.56-11.94c0.063-0.021,0.083-0.021,0.083-0.021c65.016-28.861,113.903-95.232,113.903-95.232
			c11.461-31.258-7.293-52.451-7.293-52.451s-131.283,29.529-143.786,23.277c-12.503-6.252-85.438-216.367-102.796-242.769
			c-17.379-26.402-76.561-40.114-76.561-40.114L1063.543,1019.879z"/>
		<path style="fill:#F2CCAA;" d="M1099.136,1073.705c27.652,34.634,70.288,74.644,123.822,82.541
			c25.569,3.771,50.575-1.729,73.56-11.94c-2.542,0.334-67.475,8.356-93.357-37.946c-26.402-47.241-54.951-122.26-94.169-97.254
			C1092.071,1019.899,1092.821,1046.719,1099.136,1073.705z"/>
		<path style="fill:#FFB27D;" d="M752.42,1341.433c46.316-103.87,74.658-133.684,69.247-165.923
			c-4.027-23.995,12.261-447.381,12.261-447.381c5.496-1.702,16.51-3.228,22.536-4.566c18.997-4.219,34.722-17.563,41.266-35.89
			c7.883-22.077,14.151-54.676,14.004-95.527l5.933,1.169l99.759,19.754c0,0-2.27,31.395-2.337,60.97
			c0,0.247-0.001,0.492-0.003,0.736c-0.122,25.686,16.729,48.357,41.408,55.48c12.6,3.637,23.564,6.746,23.564,6.746
			s36.632,104.581,43.628,212.02s-66.611,154.112,0.555,368.808C1192.814,1537.104,726.834,1398.828,752.42,1341.433z"/>
		<path style="fill:#E8945B;" d="M1017.426,613.068c0,0-2.269,31.395-2.337,60.97c-55.824-1.573-85.331-52.498-97.422-80.724
			L1017.426,613.068z"/>
		<path style="fill:#FFB27D;" d="M1036.068,641.073c0,0-132.078,2.179-132.168-80.094c-0.091-82.271-17.199-137.399,67.125-142.269
			c84.324-4.87,100.744,26.506,107.453,53.96C1085.188,500.123,1070.423,638.386,1036.068,641.073z"/>
		<path style="fill:#163560;" d="M1031.18,416.695c0,0-36.163,96.521-91.661,110.793c-55.497,14.271-79.571-0.599-79.571-0.599
			s42.57-33.816,51.404-92.848C911.352,434.04,1003.902,370.755,1031.18,416.695z"/>
		<path style="fill:#163560;" d="M1022.217,424.531c0,0,26.817,10.025,37.853,29.581c10.793,19.126,19.988,44.455,17.854,75.53
			c0,0,27.245-65.605-3.374-102.717C1042.084,387.572,1022.217,424.531,1022.217,424.531z"/>
		<path style="fill:#EBF3FA;" d="M1007.331,590.035c0,0,9.113,11.991,27.348,11.127c14.687-0.696,20.351-13.437,20.351-13.437
			S1028.05,581.238,1007.331,590.035z"/>
		<path style="fill:#F9DDBF;" d="M770.408,915.415c0,0,0.5,62.641,3.855,119.384c2.229,37.614,5.688,72.644,11.086,85.105
			c13.545,31.258,28.82,36.342,28.82,36.342l118.175,28.966l41.552,10.169l131.033-39.135c0,0,59.682-166.583,35.717-260.357
			c-23.964-93.773-60.578-158.894-60.578-158.894s-106.922,104.693-246.145-8.877l-31.778,6.259L770.408,915.415z"/>
		<path style="fill:#F2CCAA;" d="M774.263,1034.799c2.229,37.614,5.688,72.644,11.086,85.105
			c13.545,31.258,28.82,36.342,28.82,36.342l118.175,28.966l51.325-15.087c0,0-171.334-25.965-152.35-173.377L774.263,1034.799z"/>
		<path style="fill:#ED7D2B;" d="M1124.37,1820.88c-66.32-4.93-131.27-11.37-193.2-19.479c-17.52-2.29-34.79-4.721-51.79-7.28
			c0.76-71.431,3.74-134.681,10.01-181.15c8.98-66.5,15.42-130.409,20.02-187.729c7.53-93.68,10.18-169.75,11.11-210.721
			c0.35-15.42,0.45-25.859,0.48-30.409c0.01-0.7,0.01-1.261,0.01-1.681c0.01-0.6,0.01-0.899,0.01-0.899h175.57
			c0,0,2.49,7.739,6.52,20.7c16.55,53.26,59.19,194.739,62.54,250.05C1167.3,1479.439,1148.29,1637.55,1124.37,1820.88z"/>
		<path style="fill:#F99746;" d="M1066.83,1411.54c-4.29,7.25-8.5,14.7-12.6,22.34c-59.31,110.2-99.39,257.82-123.06,367.521
			c-17.52-2.29-34.79-4.721-51.79-7.28c-66.87-10.09-129.43-22.31-185.39-36.88c4.98-73.801,8.58-161.471,11.96-234.311
			c1.62-34.979,3.19-66.55,4.84-91.51c0.86-13.07,1.74-24.33,2.67-33.32c1.42-13.869,4.99-28.779,10.01-44.06
			c1.74-5.3,3.66-10.66,5.72-16.03c11.54-30.06,27.63-60.699,43.16-87.14c13.23-22.54,26.05-42.03,35.3-55.54
			c8.52-12.45,14.02-19.82,14.02-19.82l48.92,4.24l8.31,0.72l42.1,3.641l10.63,0.93h0.02l0.99,0.08l58.61,5.08l24.55,2.13l9.33,0.81
			l25.91,2.24c0,0,1.48,6.181,3.72,16.49c0.16,0.74,0.32,1.49,0.49,2.27c0.5,2.36,1.04,4.9,1.61,7.61
			C1067.27,1271.84,1086.29,1378.68,1066.83,1411.54z"/>
		<path style="fill:#FFFFFF;" d="M1010.266,592.235c0,0,2.283,9.695,26.402,8.2c0,0,20.251-1.252,19.631-11.908
			C1056.3,588.527,1036.664,580.947,1010.266,592.235z"/>
		<path style="fill:#233862;" d="M1106.96,1150.352c0,0-26.051,20.606-77.8,21.648c-61.814,1.245-214.984-15.759-214.984-15.759
			s-6.806,19.015-6.529,39.094c0,0,187.073,47.187,295.461,6.89C1103.108,1202.225,1117.088,1175.922,1106.96,1150.352z"/>
		<g>
			<path style="fill:#FFFFFF;" d="M1020.28,1181.53h7.64c0.51-0.98,1.08-1.91,1.7-2.79L1020.28,1181.53z M1020.28,1181.53h7.64
				c0.51-0.98,1.08-1.91,1.7-2.79L1020.28,1181.53z M1020.28,1181.53h7.64c0.51-0.98,1.08-1.91,1.7-2.79L1020.28,1181.53z
				 M1020.28,1181.53h7.64c0.51-0.98,1.08-1.91,1.7-2.79L1020.28,1181.53z M1070.19,1181.53c-1.72-4.88-4.48-9.17-7.97-12.53
				c-0.18-0.17-0.36-0.35-0.55-0.51c-4.84-4.42-11-7.07-17.68-7.07c-8.33,0-15.83,4.11-21,10.641c-2.2,2.76-3.97,5.959-5.2,9.47
				c-0.11,0.27-0.2,0.55-0.29,0.83c-1.01,3.12-1.61,6.47-1.7,9.97c-0.02,0.34-0.02,0.68-0.02,1.02c0,9.58,3.75,18.181,9.67,24.04
				c4.96,4.9,11.46,7.88,18.54,7.88c4.63,0,9.01-1.27,12.87-3.52c3.92-2.29,7.32-5.59,9.9-9.59c3.42-5.28,5.44-11.78,5.44-18.811
				C1072.2,1189.18,1071.49,1185.189,1070.19,1181.53z M1049.35,1214.99c-1.7,0.609-3.5,0.93-5.36,0.93
				c-0.521,0-1.03-0.03-1.54-0.08h-0.02c-9.68-0.95-17.3-10.67-17.3-22.49v-0.21c0.03-4.26,1.05-8.229,2.79-11.609
				c0.51-0.98,1.08-1.91,1.7-2.79c2.44-3.43,5.72-5.99,9.46-7.19c1.57-0.51,3.21-0.78,4.91-0.78c0.71,0,1.4,0.051,2.09,0.141h0.02
				c1.7,0.22,3.32,0.72,4.85,1.46c3.8,1.8,6.98,5.05,9.11,9.16c1.77,3.439,2.79,7.489,2.79,11.819c0,7.65-3.2,14.431-8.09,18.521
				c-1.63,1.36-3.45,2.42-5.39,3.11C1049.36,1214.99,1049.36,1214.99,1049.35,1214.99z M1020.28,1181.53h7.64
				c0.51-0.98,1.08-1.91,1.7-2.79L1020.28,1181.53z M1020.28,1181.53h7.64c0.51-0.98,1.08-1.91,1.7-2.79L1020.28,1181.53z
				 M1020.28,1181.53h7.64c0.51-0.98,1.08-1.91,1.7-2.79L1020.28,1181.53z"/>
		</g>
		
			<rect x="589.456" y="1359.547" transform="matrix(-0.9775 -0.2108 0.2108 -0.9775 1159.1078 3011.4241)" style="fill:#163560;" width="301.153" height="168.792"/>
		<path style="fill:#17467F;" d="M905.015,1393.18c0,0-82.299,68.946-173.766,44.961
			c-91.468-23.984-120.621-108.435-120.621-108.435L905.015,1393.18z"/>
		<g>
			<path style="fill:#17467F;" d="M869.39,1367c-1.73-0.63-3.6-0.97-5.55-0.97c-0.94,0-1.86,0.08-2.75,0.239
				c-7.2,1.211-12.82,7.16-13.54,14.521c-0.04,0.521-0.07,1.05-0.07,1.59c0,9.021,7.34,16.351,16.36,16.351
				c7.17,0,13.29-4.65,15.48-11.091c0.57-1.649,0.87-3.42,0.87-5.26C880.19,1375.311,875.68,1369.28,869.39,1367z M863.84,1393.3
				c-6.02,0-10.92-4.899-10.92-10.92c0-0.14,0-0.29,0.01-0.43c0.23-5.82,5.03-10.49,10.91-10.49c6.02,0,10.92,4.9,10.92,10.92
				c0,1.45-0.28,2.84-0.8,4.11C872.33,1390.48,868.41,1393.3,863.84,1393.3z"/>
		</g>
		<g>
			<path style="fill:#0C2442;" d="M869.216,1369.71c0.171-2.694,17.165-271.261,13.918-422.265
				c-1.708-79.289-13.954-135.144-23.93-168.039c-10.883-35.896-26.221-50.315-26.659-51.016l-6.341,1.249
				c0.411,0.661,45.38,68.615,48.594,217.984c3.242,150.648-13.729,418.865-13.901,421.557L869.216,1369.71z"/>
		</g>
		<path style="fill:#FFB27D;" d="M793.703,1355.063c1.252,0.642,2.838,1.658,4.599,3.258c4.563,2.47,18.316,8.351,21.48,8.611
			c10.003,0.827,6.534,7.629-2.239,8.731c-1.9,0.238-6.581-0.896-8.617-0.909c4.526,10.998,8.338,27.771,9.136,53.423
			c0,0,1.45,19.784-14.779,6.398c-10.848-8.948-10.646-16.337-25.734-29.193c-15.089-12.857-21.225-33.432-16.615-47.319
			l-8.513-16.63l28.128-11.265l8.263,20.169C789.939,1352.363,791.638,1354.005,793.703,1355.063z"/>
		<path style="fill:#F9DDBF;" d="M826.085,729.761c0,0-68.599,9.991-85.954,31.913c-17.355,21.923-128.147,325.306-109.651,378.738
			c18.496,53.434,27.877,124.996,72.325,174.999c14.397,16.196,35.372,30.581,48.597,31.861
			c11.824,1.146,27.573-8.525,31.926-11.378c0.71-0.465,1.077-1.295,0.948-2.133c-2.874-18.682-34.233-224.46-24.129-242.781
			c10.585-19.195,87.089-100.62,92.771-143.763C858.599,904.073,826.085,729.761,826.085,729.761z"/>
		<g>
			<g>
				<path style="fill:#163560;" d="M1573.71,1028.189l-0.14-0.149c-1.66-5.36-4.67-9.72-9.17-13.521
					c-7.84-6.38-17.55-8.38-26.91-6.359c-0.6,0.28-1.64,0.399-2.23,0.68c-1.49,0.57-3.14,0.981-4.63,1.83
					c-3.74,1.83-7.35,4.71-10.23,8.04c-0.61,0.59-1.07,1.32-1.38,2.19c-0.31,0.3-0.46,0.439-0.47,0.729
					c-3.04,4.07-4.78,8.92-5.32,13.48c0.13,0.75-0.19,1.62-0.06,2.37c-0.15,0.149-0.15,0.149-0.15,0.149
					c-0.02,1.181-0.04,1.771,0.1,2.21c-0.04,1.771,0.23,2.971,0.5,4.16c1.16,7.27,4.87,13.85,10.82,18.57
					c9.99,8.64,24,9.41,34.94,3.319c0.01-0.01,0.02-0.01,0.03-0.02c3.29-1.7,6.45-4.14,9.04-7.49c2.58-3.04,4.28-6.41,5.55-9.93
					c0-0.011,0.01-0.021,0.01-0.03v-0.01C1576.21,1041.67,1576.23,1034.45,1573.71,1028.189z M1535.05,1031.02
					c-1.979,2.771-5.69,3.12-8.16,1.45c-0.45-0.159-0.73-0.47-0.88-0.62c-0.28-0.3-0.57-0.6-0.85-1.189
					c-0.73-0.471-1.16-1.21-1.3-1.96l0.15-0.15c-0.689-1.93-0.2-4.14,1.17-5.729c1.07-1.31,2.41-2.021,3.891-1.99l0.3-0.28
					c0.3,0,0.45-0.14,0.59,0.01c1.04-0.13,2.51,0.2,3.68,1.11c0.29,0.01,0.44,0.16,0.58,0.311c1.16,0.909,1.88,1.97,2.01,3.01
					C1536.77,1027.07,1536.57,1029.28,1535.05,1031.02z"/>
				<polygon style="fill:#163560;" points="1571.661,1067.793 1580.004,1074.677 1581.941,1084.503 1589.052,1090.371 
					1596.299,1081.589 1600.058,1084.69 1592.812,1093.473 1595.756,1095.903 1597.586,1093.686 1603.145,1098.272 
					1606.352,1094.385 1609.79,1097.222 1604.752,1103.326 1609.786,1107.479 1616.732,1107.505 1619.958,1103.596 
					1625.056,1107.803 1633.53,1097.532 1570.698,1045.684 1556.195,1063.258 1567.623,1072.688 				"/>
			</g>
			<g>
				<path style="fill:#163560;" d="M1508.67,1040.63c-0.27-1.479-0.38-3.11-0.79-4.45c-1.89-7.979-6.83-14.899-13.87-19.16
					c0,0-0.01,0-0.01-0.01c-2.54-1.54-5.35-2.72-8.38-3.5c-0.74-0.17-1.76-0.64-2.8-0.52c-1.48-0.32-3.101-0.51-4.73-0.4
					c-6.83-0.22-13.42,1.91-18.81,5.811c-5.67,4.069-10.03,10.069-12.01,17.31c-3.24,12.64,1.64,25.91,11.82,33.229l0.03,0.041
					l0.12,0.109c3.06,2.29,6.41,3.7,10.39,4.82c3.82,0.97,7.65,1.359,11.51,0.85c0.01,0,0.01,0,0.02,0
					c12.3-1.359,23.28-10.43,26.52-23.06C1508.8,1048.03,1508.73,1044.32,1508.67,1040.63z M1480.77,1032.03
					c-3.68-0.82-5.67-4.42-4.71-7.95c0.49-1.91,1.7-3.07,3.48-3.62c0.27-0.27,0.68-0.4,1.2-0.65c0.05-0.02,0.1-0.04,0.15-0.06
					c0.3-0.28,0.9-0.269,1.2-0.26c0.59-0.29,1.17,0.02,1.77,0.029c3.52,0.971,5.52,4.57,4.7,7.95c-0.34,1.761-1.41,3.07-3.19,3.62
					C1484.16,1032.24,1482.38,1032.5,1480.77,1032.03z"/>
				<polygon style="fill:#163560;" points="1462.594,1080.677 1459.833,1091.135 1451.72,1097.006 1449.366,1105.92 
					1460.375,1108.827 1459.131,1113.539 1448.122,1110.633 1447.147,1114.324 1449.926,1115.058 1448.086,1122.025 
					1452.96,1123.313 1451.822,1127.621 1444.17,1125.601 1442.504,1131.91 1445.388,1138.229 1450.288,1139.523 1448.601,1145.914 
					1461.475,1149.313 1482.271,1070.55 1460.241,1064.732 1456.459,1079.057 				"/>
			</g>
			<path style="fill:#F99746;" d="M1520.21,987.08l-0.14-0.16c-1.311-0.77-2.34-1.24-3.67-1.41c-1.61-0.78-3.52-1.26-5.73-1.47
				c-0.72-0.45-1.47-0.32-2.2-0.48c-6.979-0.45-13.45,1.69-18.37,5.46c0,0-0.01,0-0.01,0.01c-0.09,0.05-0.15,0.11-0.23,0.17
				l-0.3,0.29c-6.61,4.58-11.08,12.31-11.41,21.04l-0.06,2.06c1.63-0.109,3.25,0.08,4.73,0.4c0.01-0.58,0.03-1.471,0.05-2.06
				c0.62-9.399,6.32-17.12,14.29-20.63l0.01-0.01c3.31-1.45,7-2.19,10.9-2.02c1.17,0.04,2.8,0.22,3.83,0.68l0.29,0.02
				c1.03,0.17,1.62,0.18,2.34,0.63c1.939,0.62,3.78,1.5,5.47,2.6c0.14,0,0.28,0.01,0.42,0.02c0.44,0.01,0.89,0.03,1.33,0.05
				c0.22,0.01,0.45,0.02,0.67,0.03c0.44,0.02,0.89,0.04,1.33,0.06c0.45,0.02,0.89,0.04,1.33,0.07c0.44,0.02,0.88,0.05,1.31,0.08
				c0.37,0.02,0.74,0.04,1.11,0.07C1525.44,990.41,1522.99,988.59,1520.21,987.08z M1535.26,1008.84c-0.22-2.41-0.92-4.59-1.67-6.75
				v-0.01c-0.15,0.1-0.31,0.189-0.48,0.29c-0.16,0.09-0.33,0.189-0.5,0.29c-0.67,0.39-1.38,0.78-2.13,1.18
				c-0.37,0.21-0.75,0.41-1.14,0.61c0.7,1.89,1.22,4.02,1.29,6.22c0.13,0.73,0.1,1.92-0.06,2.65c-0.01,0.6,0.13,1.04-0.18,1.62
				c-0.2,1.93-0.53,3.689-1.02,5.609l-0.3,0.28c-1.09,2.78-2.94,5.7-5.061,7.72l-0.15,0.15c0.14,0.75,0.57,1.489,1.3,1.96
				c0.28,0.59,0.57,0.89,0.85,1.189c0.15,0.15,0.43,0.461,0.88,0.62c1.36-1.31,2.43-2.909,3.5-4.51l0.15-0.14
				c1.23-1.75,2.45-3.79,3.1-6.15l0.15-0.14c0.16-0.44,0.46-1.02,0.33-1.77c0.79-1.899,0.98-4.109,1.03-6.19
				c0.02-0.88,0.05-2.06,0.06-2.96C1535.37,1010.18,1535.4,1009.3,1535.26,1008.84z M1513.23,1035.11
				c-1.64,0.409-3.57,0.81-5.35,1.069l-2.36-0.05c-6.79-0.45-12.94-3.54-16.96-8.66c-2.17-2.27-3.59-4.97-4.7-7.95
				c-0.6-0.01-1.18-0.319-1.77-0.029c-0.3-0.01-0.9-0.02-1.2,0.26c-0.05,0.019-0.1,0.04-0.15,0.06
				c-0.54,0.181-1.07-0.069-1.47,0.061c0.14,0.149-0.01,0.29,0.27,0.59c1.25,4.02,3.24,7.61,5.83,10.63l0.29,0.3
				c4.9,5.44,11.63,8.841,19.46,9.171c1.33,0.17,2.36,0.05,3.55,0.069c0.58,0.01,1.18,0.03,2.22-0.1l0.15-0.141
				c0.59,0.021,1.49-0.27,2.08-0.55c-0.13-0.74,0.03-1.479,0.05-2.359C1513.04,1036.73,1513.36,1035.86,1513.23,1035.11z"/>
		</g>
	</g>
	<path style="fill:#A8D29F;" d="M1258.36,1829.693c-10.171-0.442-20.343-0.918-30.493-1.436
		c15.7-30.979,56.396-105.937,78.165-96.78C1326.698,1740.181,1281.64,1800.637,1258.36,1829.693z"/>
	<path style="fill:#A8D29F;" d="M1302.673,1831.453c-8.368-0.291-16.736-0.604-25.104-0.949
		c10.344-15.128,33.592-45.545,51.505-42.543C1344.968,1790.628,1320.565,1815.376,1302.673,1831.453z"/>
	<path style="fill:#A8D29F;" d="M1192.829,1826.357c-6.414-0.378-12.817-0.756-19.209-1.166
		c0.259-18.281,2.591-81.588,22.276-86.512C1215.104,1733.886,1198.778,1803.186,1192.829,1826.357z"/>
</g>
</svg>
